<svg version="1.1" id="Layer_1" xmlns="http://www.w3.org/2000/svg" xmlns:xlink="http://www.w3.org/1999/xlink" x="0px" y="0px"
	 width="100%" viewBox="0 0 1600 1600" enable-background="new 0 0 1600 1600" xml:space="preserve">
<path fill="#CE3839" opacity="1.000000" stroke="none" 
	d="
M1023.000000,1601.000000 
	C682.000122,1601.000000 341.500214,1601.000000 1.000228,1601.000000 
	C1.000152,1067.666870 1.000152,534.333862 1.000076,1.000586 
	C534.332947,1.000391 1067.665894,1.000391 1600.999023,1.000195 
	C1600.999390,534.332764 1600.999390,1067.665527 1600.999756,1600.999146 
	C1408.500000,1601.000000 1216.000000,1601.000000 1023.000000,1601.000000 
M698.499939,992.809998 
	C771.998169,992.809937 845.496460,992.812317 918.994690,992.806274 
	C926.193787,992.805725 927.800049,991.206726 927.805725,984.052246 
	C927.818970,967.386047 927.813049,950.719849 927.808655,934.053650 
	C927.806519,926.092041 926.595581,924.897583 918.524841,924.897461 
	C826.694092,924.895813 734.863403,924.897339 643.032654,924.895691 
	C617.868347,924.895264 597.674011,914.984314 582.488220,894.805237 
	C570.673584,879.105774 558.652283,863.561829 546.731873,847.941895 
	C536.966797,835.146118 527.215210,822.340088 517.240112,809.253235 
	C519.682129,808.007935 521.732178,806.961670 523.783020,805.916992 
	C572.561218,781.069275 599.307068,725.541504 587.685852,673.246155 
	C575.301941,617.518616 526.872742,577.315918 469.538239,576.749878 
	C403.213226,576.095032 336.876831,576.586853 270.545380,576.613220 
	C264.408478,576.615662 263.004333,578.143799 263.004028,584.408325 
	C262.997650,717.904541 262.997650,851.400818 263.004089,984.897034 
	C263.004395,991.165222 264.651062,992.795593 271.002502,992.803101 
	C287.835327,992.823120 304.668213,992.812622 321.501068,992.808716 
	C329.673889,992.806824 330.998688,991.474121 330.999176,983.221069 
	C331.002411,930.722534 331.000824,878.224060 331.000824,825.725525 
	C331.000824,823.811340 331.000824,821.897217 331.000824,819.809998 
	C355.938751,819.809998 380.100708,819.791260 404.262604,819.815308 
	C427.640869,819.838623 446.596985,829.304382 460.810089,847.600647 
	C482.873810,876.003113 504.655090,904.629150 526.255615,933.386169 
	C556.260376,973.331848 595.993164,993.293945 646.001587,992.835022 
	C663.166321,992.677551 680.333679,992.809998 698.499939,992.809998 
M1242.101318,960.636658 
	C1243.348877,959.808533 1244.593994,958.976807 1245.844238,958.152710 
	C1315.214844,912.425415 1351.056274,828.247925 1335.730347,747.042175 
	C1317.340332,649.600769 1230.881836,577.276367 1131.669189,576.643921 
	C1086.848145,576.358154 1042.023926,576.585266 997.201111,576.606445 
	C990.534424,576.609619 989.010498,578.194092 989.004272,584.897217 
	C988.988770,601.559998 988.998047,618.222717 988.999634,634.885498 
	C989.000427,643.370850 990.014038,644.402527 998.432556,644.403320 
	C1041.089233,644.407349 1083.746826,644.261536 1126.401855,644.518311 
	C1135.670776,644.574158 1145.044067,645.412354 1154.177124,646.997375 
	C1227.251221,659.679688 1282.112427,728.907654 1269.203247,807.862671 
	C1258.410156,873.875916 1199.150879,924.858337 1132.201782,924.891846 
	C1087.212280,924.914368 1042.222778,924.891113 997.233337,924.901978 
	C990.524597,924.903564 989.011169,926.419617 989.004578,933.106384 
	C988.988098,949.935791 988.995972,966.765137 989.000488,983.594543 
	C989.002563,991.466492 990.357788,992.808105 998.329529,992.808655 
	C1042.319214,992.812012 1086.308838,992.848816 1130.298584,992.798828 
	C1170.362305,992.753357 1207.454590,982.231995 1242.101318,960.636658 
M691.500000,819.000061 
	C767.302124,819.000061 843.104248,819.000793 918.906372,818.999084 
	C926.469788,818.998901 927.802673,817.652222 927.806458,809.967163 
	C927.814697,793.140747 927.820251,776.314392 927.803467,759.487976 
	C927.796692,752.663025 926.122498,751.008423 919.220703,751.004883 
	C894.730774,750.992249 870.240906,750.999939 845.750977,750.999939 
	C782.776917,750.999939 719.802856,750.997498 656.828796,751.003174 
	C649.529663,751.003845 648.003296,752.518311 648.001404,759.680847 
	C647.996765,776.840454 647.989624,794.000000 648.005310,811.159607 
	C648.011108,817.497314 649.544617,818.988220 656.014221,818.996094 
	C667.509460,819.010071 679.004761,819.000061 691.500000,819.000061 
M891.500366,576.596252 
	C813.388794,576.596313 735.277283,576.593872 657.165710,576.600098 
	C648.935547,576.600769 648.001221,577.560181 648.000427,585.800842 
	C647.998718,602.788818 647.987305,619.776855 648.006592,636.764832 
	C648.013611,642.988586 649.357300,644.386719 655.674316,644.388245 
	C743.778748,644.409546 831.883240,644.408386 919.987671,644.390503 
	C926.068420,644.389221 927.782654,642.699463 927.795349,636.751343 
	C927.832642,619.263733 927.831238,601.776001 927.796143,584.288391 
	C927.784302,578.387573 926.008057,576.647278 919.980957,576.611511 
	C910.821045,576.557190 901.660645,576.596619 891.500366,576.596252 
M404.492004,1208.018066 
	C409.613678,1214.369873 415.034546,1220.508545 419.762421,1227.140991 
	C423.548706,1232.452515 428.035736,1234.867432 434.544312,1234.077515 
	C437.992798,1233.658813 441.533905,1234.008179 445.033203,1234.002075 
	C451.921906,1233.989990 452.806854,1233.126831 452.809540,1226.251343 
	C452.819244,1201.422974 452.813507,1176.594482 452.813416,1151.766113 
	C452.813324,1133.769653 452.751434,1115.772949 452.854889,1097.777100 
	C452.881561,1093.138062 451.011505,1091.004761 446.311157,1091.154663 
	C441.650177,1091.303467 436.980713,1091.178223 432.315002,1091.188354 
	C425.343567,1091.203735 424.595856,1091.930542 424.592773,1098.944580 
	C424.580261,1127.438843 424.592255,1155.933228 424.576050,1184.427490 
	C424.575012,1186.238159 424.411255,1188.048950 424.264374,1191.070190 
	C400.637939,1161.725708 378.090942,1133.498413 355.286743,1105.480469 
	C341.003876,1087.932129 348.113953,1091.558960 325.673401,1091.208862 
	C317.030029,1091.073975 316.590973,1091.606445 316.589905,1100.152222 
	C316.584625,1141.810547 316.587372,1183.468994 316.588257,1225.127319 
	C316.588287,1226.293701 316.579224,1227.460571 316.609863,1228.626343 
	C316.705841,1232.281616 318.505005,1234.084961 322.249725,1234.021851 
	C327.080719,1233.940308 331.914124,1234.006470 336.746490,1234.002197 
	C344.098785,1233.995605 344.998047,1233.101074 345.000153,1225.647339 
	C345.008026,1197.486328 345.003357,1169.325195 345.003387,1141.164185 
	C345.003387,1139.429321 345.003357,1137.694458 345.003357,1134.613037 
	C365.308777,1159.679932 384.668121,1183.578979 404.492004,1208.018066 
M1240.500122,1091.185425 
	C1233.337524,1091.185547 1226.174561,1091.149902 1219.012329,1091.197388 
	C1213.437500,1091.234375 1212.219604,1092.406860 1212.200684,1097.901978 
	C1212.155273,1111.061035 1212.185547,1124.220215 1212.185547,1137.379395 
	C1212.185547,1167.195679 1212.210327,1197.012085 1212.157227,1226.828369 
	C1212.149902,1230.965210 1212.787109,1234.047729 1218.001953,1234.038086 
	C1254.480957,1233.971069 1290.960205,1233.991455 1327.439331,1234.016602 
	C1331.491577,1234.019409 1333.101074,1232.000732 1333.024902,1228.111816 
	C1332.933472,1223.449463 1333.018311,1218.784180 1333.000244,1214.120117 
	C1332.975952,1207.863525 1332.102783,1207.002441 1325.673340,1207.000122 
	C1299.021851,1206.990479 1272.370483,1206.996216 1245.718994,1206.996216 
	C1243.957153,1206.996216 1242.195312,1206.996094 1240.420044,1206.996094 
	C1240.420044,1195.750610 1240.420044,1185.178467 1240.420044,1174.107422 
	C1242.516113,1174.107422 1244.305420,1174.107544 1246.094849,1174.107544 
	C1262.585449,1174.107300 1279.076904,1174.008179 1295.565918,1174.168701 
	C1300.308105,1174.214844 1302.291992,1172.310303 1302.129761,1167.666138 
	C1301.995972,1163.839722 1302.142578,1160.004395 1302.097656,1156.173828 
	C1302.028809,1150.311035 1300.932129,1149.202271 1295.076050,1149.193970 
	C1278.585449,1149.170288 1262.094849,1149.192993 1245.604248,1149.174561 
	C1243.854858,1149.172607 1242.105713,1149.019287 1240.417114,1148.939087 
	C1240.417114,1138.440308 1240.417114,1128.525635 1240.417114,1118.107422 
	C1242.499634,1118.107422 1244.293091,1118.107422 1246.086548,1118.107422 
	C1272.738037,1118.107300 1299.389404,1118.117676 1326.040894,1118.098999 
	C1332.000732,1118.094727 1332.963623,1117.094971 1332.998901,1111.117554 
	C1333.023560,1106.953369 1333.013062,1102.788940 1333.001465,1098.624634 
	C1332.983643,1092.163208 1332.022461,1091.193481 1325.452271,1091.190674 
	C1297.468262,1091.178833 1269.484253,1091.185425 1240.500122,1091.185425 
M565.894531,397.499969 
	C565.894592,432.980957 565.928345,468.462036 565.848328,503.942871 
	C565.839233,507.983948 566.528442,510.832275 571.397827,510.827606 
	C607.878235,510.792572 644.358704,510.801666 680.839111,510.819336 
	C684.859680,510.821289 686.522217,508.828003 686.431519,504.911041 
	C686.327454,500.415863 686.426270,495.916351 686.406433,491.418854 
	C686.376526,484.639252 685.659180,483.899719 679.041199,483.897736 
	C652.555420,483.889801 626.069580,483.894440 599.583801,483.894440 
	C597.807007,483.894440 596.030212,483.894440 594.213745,483.894440 
	C594.213745,472.597961 594.213745,461.903381 594.213745,451.002197 
	C612.758179,451.002197 630.902649,450.909637 649.044983,451.068329 
	C653.489746,451.107147 655.630920,449.265228 655.758484,445.025360 
	C655.888672,440.698395 655.883972,436.362030 655.765991,432.034485 
	C655.651428,427.834900 653.650330,425.834167 649.136108,425.928192 
	C638.646301,426.146729 628.148865,425.997650 617.654480,425.997620 
	C609.868713,425.997589 602.082886,425.997620 594.110840,425.997620 
	C594.110840,415.475128 594.110840,405.431946 594.110840,395.002380 
	C596.204102,395.002380 598.003418,395.002380 599.802734,395.002380 
	C626.455078,395.002350 653.107788,394.935730 679.759521,395.065216 
	C684.412537,395.087830 686.576843,393.445892 686.440613,388.697815 
	C686.292664,383.538086 686.433167,378.370697 686.382874,373.207306 
	C686.349915,369.816620 684.737488,367.984711 681.164307,367.986816 
	C644.517273,368.008423 607.870300,368.006439 571.223267,367.989471 
	C567.466431,367.987732 565.817688,369.740967 565.867126,373.512665 
	C565.967651,381.173889 565.895508,388.837372 565.894531,397.499969 
M540.412781,382.556152 
	C540.411743,379.889618 540.331726,377.220215 540.427368,374.557159 
	C540.590637,370.011963 538.745361,367.748077 533.930420,367.948334 
	C528.772766,368.162872 523.593262,368.153168 518.434570,367.950958 
	C513.687378,367.764923 511.894836,369.804382 511.941467,374.496613 
	C512.090515,389.494751 511.996674,404.495361 511.996582,419.494995 
	C511.996552,421.761017 511.996552,424.027069 511.996552,426.249512 
	C486.219604,426.249512 461.125183,426.249512 435.412933,426.249512 
	C435.412933,424.137726 435.412933,422.356018 435.412933,420.574310 
	C435.412872,405.907990 435.416138,391.241669 435.411407,376.575348 
	C435.408752,368.395630 435.019104,367.999878 427.078339,367.996887 
	C422.578430,367.995178 418.071320,368.155975 413.580658,367.952301 
	C409.053650,367.746979 407.179565,369.854340 407.180847,374.178436 
	C407.193787,417.677399 407.196045,461.176392 407.177887,504.675354 
	C407.176025,509.115784 409.337860,510.968933 413.705444,510.845398 
	C418.701324,510.704102 423.704590,510.846436 428.704132,510.804321 
	C434.364868,510.756683 435.386017,509.761566 435.399475,504.043793 
	C435.436005,488.544250 435.404846,473.044525 435.423523,457.544891 
	C435.425659,455.775970 435.574005,454.007233 435.657349,452.177399 
	C461.298309,452.177399 486.509186,452.177399 511.996552,452.177399 
	C511.996552,454.351807 511.996552,456.164490 511.996552,457.977142 
	C511.996704,473.476776 512.076904,488.977081 511.946564,504.475616 
	C511.909149,508.927460 513.672302,510.949402 518.135376,510.837067 
	C522.632385,510.723846 527.134521,510.814728 531.634399,510.813202 
	C539.899963,510.810425 540.408142,510.319519 540.409607,502.037018 
	C540.416504,462.537933 540.412659,423.038879 540.412781,382.556152 
M858.284241,1206.125244 
	C857.281433,1204.027466 856.283264,1201.927368 855.275146,1199.832153 
	C838.857849,1165.709839 822.358826,1131.626465 806.112854,1097.422852 
	C803.831543,1092.619873 800.859375,1090.730591 795.661194,1091.106201 
	C790.523132,1091.477539 785.312683,1091.501099 780.179260,1091.098999 
	C775.059387,1090.697998 772.273132,1092.803467 770.136292,1097.314819 
	C759.471436,1119.830933 748.582336,1142.240845 737.761841,1164.683228 
	C727.881104,1185.176514 717.980286,1205.660156 708.103699,1226.155273 
	C705.263916,1232.048340 706.496338,1233.973999 713.094116,1233.998169 
	C718.925415,1234.019531 724.759155,1233.902710 730.587341,1234.038940 
	C734.197693,1234.123291 736.580017,1232.691162 738.063721,1229.410156 
	C740.526672,1223.963867 743.218750,1218.619263 745.602051,1213.139648 
	C746.720764,1210.567627 748.092773,1209.326782 751.142151,1209.342285 
	C775.799744,1209.468018 800.458618,1209.468994 825.116211,1209.340332 
	C828.167175,1209.324341 829.543152,1210.512939 830.640503,1213.131592 
	C832.884583,1218.486694 835.499023,1223.685547 837.804260,1229.016479 
	C839.299438,1232.474243 841.600525,1234.168335 845.496887,1234.051636 
	C851.655945,1233.867065 857.825317,1234.061035 863.988892,1233.984131 
	C869.253052,1233.918335 870.509460,1231.964600 868.271667,1227.026855 
	C865.187378,1220.221680 861.882202,1213.516602 858.284241,1206.125244 
M1075.267578,1106.176147 
	C1073.797241,1102.835083 1072.259766,1099.521362 1070.874878,1096.145264 
	C1069.442017,1092.652222 1067.077515,1090.996094 1063.174438,1091.134399 
	C1057.515259,1091.334961 1051.843018,1091.134399 1046.177490,1091.200317 
	C1040.622925,1091.264771 1039.381470,1093.223999 1041.603394,1098.435059 
	C1043.361328,1102.557983 1045.255737,1106.622681 1047.095947,1110.710571 
	C1064.687500,1149.789551 1082.338867,1188.841797 1099.792358,1227.982422 
	C1101.783081,1232.446899 1104.403442,1234.334717 1109.295776,1234.087891 
	C1115.945068,1233.752441 1122.635620,1233.763062 1129.286255,1234.085571 
	C1134.018921,1234.314941 1136.522827,1232.412109 1138.377686,1228.145752 
	C1145.264771,1212.304199 1152.462524,1196.597900 1159.529175,1180.834229 
	C1171.761230,1153.548340 1183.990967,1126.261353 1196.201172,1098.965698 
	C1198.945068,1092.831787 1197.887939,1091.225220 1191.171143,1091.190308 
	C1186.171631,1091.164185 1181.157349,1091.421631 1176.176270,1091.117920 
	C1171.304443,1090.820679 1168.658569,1092.754028 1166.696655,1097.263916 
	C1155.901489,1122.078003 1144.832520,1146.772827 1133.842896,1171.502197 
	C1129.157471,1182.045288 1124.436890,1192.572876 1119.303345,1204.067993 
	C1104.465332,1171.014282 1090.059326,1138.923096 1075.267578,1106.176147 
M289.500122,395.106018 
	C297.603668,395.106018 305.707245,395.106018 314.187378,395.106018 
	C314.187378,397.554596 314.187408,399.360931 314.187408,401.167267 
	C314.187408,418.156891 314.187408,435.146515 314.187408,452.136139 
	C314.187439,468.959198 314.180267,485.782257 314.190857,502.605316 
	C314.195312,509.694305 315.276459,510.795776 322.149109,510.810852 
	C326.313202,510.819977 330.477386,510.820007 334.641479,510.810883 
	C341.712219,510.795349 342.406281,510.127228 342.407867,503.156403 
	C342.415588,469.177155 342.406433,435.197937 342.424713,401.218689 
	C342.425751,399.300934 342.617249,397.383331 342.739380,395.106079 
	C344.909424,395.106079 346.546844,395.106140 348.184265,395.106110 
	C360.510071,395.105713 372.836456,395.037689 385.161377,395.142548 
	C389.333618,395.178040 391.323853,393.611969 391.149506,389.251495 
	C390.956665,384.428833 391.126068,379.592377 391.100647,374.762146 
	C391.070068,368.955414 390.181580,368.032043 384.507446,368.005066 
	C377.678436,367.972595 370.849152,367.997284 364.019989,367.997284 
	C333.538605,367.997284 303.057159,368.024811 272.575897,367.962036 
	C268.833801,367.954346 265.753296,368.530762 265.655975,373.063171 
	C265.534424,378.722961 265.560394,384.388824 265.664368,390.049438 
	C265.726196,393.416565 267.424652,395.196045 271.011536,395.130341 
	C276.839294,395.023560 282.670532,395.104370 289.500122,395.106018 
M933.106262,1141.500000 
	C933.106262,1133.930542 933.106262,1126.361206 933.106262,1118.411987 
	C935.763428,1118.411987 937.574524,1118.412231 939.385559,1118.412109 
	C951.375000,1118.411255 963.365051,1118.336304 975.353455,1118.446899 
	C980.013062,1118.489868 982.049011,1116.537476 981.856262,1111.835815 
	C981.658691,1107.014771 981.736816,1102.178101 981.834106,1097.350952 
	C981.916809,1093.243286 980.191467,1091.168091 975.936584,1091.171509 
	C937.970093,1091.202026 900.003540,1091.206299 862.037048,1091.164795 
	C857.775269,1091.160156 856.005432,1093.283813 856.003235,1097.303955 
	C856.000671,1101.966553 855.958496,1106.629517 856.007690,1111.291504 
	C856.069275,1117.124390 857.263611,1118.369995 863.049622,1118.395752 
	C874.705750,1118.447510 886.362366,1118.411743 898.018738,1118.411987 
	C900.131348,1118.412109 902.244019,1118.411987 904.893677,1118.411987 
	C904.893677,1120.840210 904.893677,1122.629517 904.893677,1124.418701 
	C904.893677,1141.403687 904.893738,1158.388794 904.893799,1175.373779 
	C904.893921,1192.691895 904.872559,1210.009888 904.906494,1227.328003 
	C904.917480,1232.927856 906.010620,1233.956299 911.690430,1233.996460 
	C916.186218,1234.028198 920.682434,1234.007568 925.178467,1234.001587 
	C932.390869,1233.991943 933.096802,1233.302246 933.100525,1225.926392 
	C933.114563,1198.117554 933.106201,1170.308838 933.106262,1141.500000 
M593.500061,1091.186768 
	C572.007996,1091.187012 550.515991,1091.172119 529.023926,1091.197388 
	C523.314575,1091.204102 522.062805,1092.499634 522.005737,1098.286987 
	C521.963135,1102.618164 521.963501,1106.950684 522.005493,1111.281860 
	C522.063232,1117.242065 523.116089,1118.359253 528.990234,1118.395386 
	C538.486328,1118.453613 547.983032,1118.411499 557.479492,1118.411743 
	C561.765930,1118.411865 566.052307,1118.411865 570.893677,1118.411865 
	C570.893677,1120.807129 570.893677,1122.595215 570.893677,1124.383301 
	C570.893677,1158.370605 570.889160,1192.358032 570.897522,1226.345337 
	C570.899231,1233.342773 571.576294,1233.989014 578.692017,1234.001587 
	C582.690552,1234.008667 586.689026,1234.004761 590.687561,1234.002441 
	C598.493408,1233.997925 599.001221,1233.507812 599.001831,1225.887939 
	C599.004456,1192.067139 599.002991,1158.246460 599.002991,1124.425659 
	C599.002991,1122.512207 599.002991,1120.598755 599.002991,1118.411865 
	C601.579895,1118.411865 603.403015,1118.411865 605.226135,1118.411865 
	C617.221680,1118.411255 629.218201,1118.321655 641.212280,1118.454956 
	C645.848877,1118.506348 647.988892,1116.632446 647.842529,1111.939941 
	C647.702332,1107.446045 647.834167,1102.944092 647.807495,1098.445923 
	C647.771545,1092.389282 646.594360,1091.202881 640.483032,1091.194214 
	C625.155396,1091.172363 609.827759,1091.186890 593.500061,1091.186768 
M291.109222,1208.500000 
	C291.109161,1171.712402 291.115479,1134.924927 291.102692,1098.137329 
	C291.100616,1092.114136 290.202484,1091.231812 284.199127,1091.189697 
	C279.871399,1091.159302 275.543243,1091.176636 271.215302,1091.185181 
	C264.163239,1091.199097 263.188324,1092.162354 263.187073,1099.248535 
	C263.180145,1138.532959 263.183441,1177.817505 263.184174,1217.101929 
	C263.184235,1220.930542 263.119263,1224.760864 263.215210,1228.587158 
	C263.304565,1232.148804 265.012787,1234.097412 268.821075,1234.029053 
	C274.312469,1233.930298 279.809143,1233.909790 285.299438,1234.035156 
	C289.582825,1234.132812 291.270782,1232.193848 291.152740,1227.975830 
	C290.980469,1221.821533 291.108948,1215.659058 291.109222,1208.500000 
M663.890808,1195.500000 
	C663.890991,1206.154907 663.999207,1216.811401 663.841125,1227.463989 
	C663.772644,1232.073608 665.435608,1234.280762 670.261353,1234.052734 
	C674.912415,1233.832764 679.582153,1234.013306 684.243652,1234.003296 
	C690.844788,1233.989014 691.803040,1233.080322 691.809875,1226.615479 
	C691.828369,1209.134766 691.816345,1191.654175 691.816345,1174.173462 
	C691.816345,1148.868042 691.826599,1123.562622 691.808350,1098.257202 
	C691.804138,1092.364136 690.671631,1091.232788 684.890137,1091.190552 
	C680.395325,1091.157715 675.900085,1091.172974 671.405090,1091.186157 
	C664.705322,1091.205688 663.896790,1091.987793 663.894958,1098.605835 
	C663.885803,1130.570557 663.890808,1162.535278 663.890808,1195.500000 
M477.999176,1114.500244 
	C477.999176,1126.488281 477.999176,1138.476318 477.999176,1150.464355 
	C477.999237,1175.938843 477.987579,1201.413452 478.008087,1226.887939 
	C478.012817,1232.749268 479.219666,1233.955078 484.947662,1233.994019 
	C489.775940,1234.026855 494.604889,1234.030396 499.433075,1233.992798 
	C505.018433,1233.949341 506.074432,1232.914917 506.089600,1227.188965 
	C506.129333,1212.204102 506.103607,1197.218994 506.103668,1182.234009 
	C506.103790,1154.761475 506.107819,1127.288940 506.101166,1099.816406 
	C506.099152,1091.620239 505.646759,1091.192261 497.244171,1091.190308 
	C492.748688,1091.189331 488.252777,1091.230713 483.757812,1091.182373 
	C479.776123,1091.139526 477.986328,1093.148438 477.996826,1097.017090 
	C478.011719,1102.511597 477.999695,1108.006104 477.999176,1114.500244 
M997.898071,1096.901123 
	C997.897461,1126.708618 997.896729,1156.516113 997.896423,1186.323608 
	C997.896301,1200.145020 997.976929,1213.967041 997.851868,1227.787354 
	C997.811218,1232.280640 999.698975,1234.180420 1004.135132,1234.031738 
	C1008.459900,1233.886963 1012.793213,1234.001587 1017.122803,1234.000488 
	C1025.319458,1233.998169 1025.996704,1233.346191 1025.998169,1225.270752 
	C1026.004272,1191.966309 1026.000977,1158.661743 1026.000488,1125.357300 
	C1026.000366,1116.031982 1025.993774,1106.706787 1025.999268,1097.381470 
	C1026.001465,1093.702759 1024.638062,1091.222778 1020.542847,1091.203979 
	C1014.714661,1091.177246 1008.886047,1091.165283 1003.058105,1091.207764 
	C999.938049,1091.230469 998.019714,1092.670044 997.898071,1096.901123 
z"/>
<path fill="#FFFFFF" opacity="1.000000" stroke="none" 
	d="
M697.999878,992.809998 
	C680.333679,992.809998 663.166321,992.677551 646.001587,992.835022 
	C595.993164,993.293945 556.260376,973.331848 526.255615,933.386169 
	C504.655090,904.629150 482.873810,876.003113 460.810089,847.600647 
	C446.596985,829.304382 427.640869,819.838623 404.262604,819.815308 
	C380.100708,819.791260 355.938751,819.809998 331.000824,819.809998 
	C331.000824,821.897217 331.000824,823.811340 331.000824,825.725525 
	C331.000824,878.224060 331.002411,930.722534 330.999176,983.221069 
	C330.998688,991.474121 329.673889,992.806824 321.501068,992.808716 
	C304.668213,992.812622 287.835327,992.823120 271.002502,992.803101 
	C264.651062,992.795593 263.004395,991.165222 263.004089,984.897034 
	C262.997650,851.400818 262.997650,717.904541 263.004028,584.408325 
	C263.004333,578.143799 264.408478,576.615662 270.545380,576.613220 
	C336.876831,576.586853 403.213226,576.095032 469.538239,576.749878 
	C526.872742,577.315918 575.301941,617.518616 587.685852,673.246155 
	C599.307068,725.541504 572.561218,781.069275 523.783020,805.916992 
	C521.732178,806.961670 519.682129,808.007935 517.240112,809.253235 
	C527.215210,822.340088 536.966797,835.146118 546.731873,847.941895 
	C558.652283,863.561829 570.673584,879.105774 582.488220,894.805237 
	C597.674011,914.984314 617.868347,924.895264 643.032654,924.895691 
	C734.863403,924.897339 826.694092,924.895813 918.524841,924.897461 
	C926.595581,924.897583 927.806519,926.092041 927.808655,934.053650 
	C927.813049,950.719849 927.818970,967.386047 927.805725,984.052246 
	C927.800049,991.206726 926.193787,992.805725 918.994690,992.806274 
	C845.496460,992.812317 771.998169,992.809937 697.999878,992.809998 
M353.500031,751.000732 
	C392.641205,751.000549 431.782867,751.121338 470.923401,750.961792 
	C502.011963,750.835083 527.369629,719.650085 521.437561,689.182617 
	C516.145142,662.000427 494.933075,644.451111 467.116730,644.416443 
	C423.478577,644.362122 379.840240,644.402039 336.201996,644.402039 
	C334.583588,644.402039 332.965149,644.402039 331.300049,644.402039 
	C331.300049,680.236389 331.300049,715.456848 331.300049,751.000732 
	C338.564819,751.000732 345.532471,751.000732 353.500031,751.000732 
z"/>
<path fill="#FFFEFE" opacity="1.000000" stroke="none" 
	d="
M1241.783203,960.811768 
	C1207.454590,982.231995 1170.362305,992.753357 1130.298584,992.798828 
	C1086.308838,992.848816 1042.319214,992.812012 998.329529,992.808655 
	C990.357788,992.808105 989.002563,991.466492 989.000488,983.594543 
	C988.995972,966.765137 988.988098,949.935791 989.004578,933.106384 
	C989.011169,926.419617 990.524597,924.903564 997.233337,924.901978 
	C1042.222778,924.891113 1087.212280,924.914368 1132.201782,924.891846 
	C1199.150879,924.858337 1258.410156,873.875916 1269.203247,807.862671 
	C1282.112427,728.907654 1227.251221,659.679688 1154.177124,646.997375 
	C1145.044067,645.412354 1135.670776,644.574158 1126.401855,644.518311 
	C1083.746826,644.261536 1041.089233,644.407349 998.432556,644.403320 
	C990.014038,644.402527 989.000427,643.370850 988.999634,634.885498 
	C988.998047,618.222717 988.988770,601.559998 989.004272,584.897217 
	C989.010498,578.194092 990.534424,576.609619 997.201111,576.606445 
	C1042.023926,576.585266 1086.848145,576.358154 1131.669189,576.643921 
	C1230.881836,577.276367 1317.340332,649.600769 1335.730347,747.042175 
	C1351.056274,828.247925 1315.214844,912.425415 1245.844238,958.152710 
	C1244.593994,958.976807 1243.348877,959.808533 1241.783203,960.811768 
z"/>
<path fill="#FFFFFF" opacity="1.000000" stroke="none" 
	d="
M691.000000,819.000061 
	C679.004761,819.000061 667.509460,819.010071 656.014221,818.996094 
	C649.544617,818.988220 648.011108,817.497314 648.005310,811.159607 
	C647.989624,794.000000 647.996765,776.840454 648.001404,759.680847 
	C648.003296,752.518311 649.529663,751.003845 656.828796,751.003174 
	C719.802856,750.997498 782.776917,750.999939 845.750977,750.999939 
	C870.240906,750.999939 894.730774,750.992249 919.220703,751.004883 
	C926.122498,751.008423 927.796692,752.663025 927.803467,759.487976 
	C927.820251,776.314392 927.814697,793.140747 927.806458,809.967163 
	C927.802673,817.652222 926.469788,818.998901 918.906372,818.999084 
	C843.104248,819.000793 767.302124,819.000061 691.000000,819.000061 
z"/>
<path fill="#FFFFFF" opacity="1.000000" stroke="none" 
	d="
M892.000366,576.596252 
	C901.660645,576.596619 910.821045,576.557190 919.980957,576.611511 
	C926.008057,576.647278 927.784302,578.387573 927.796143,584.288391 
	C927.831238,601.776001 927.832642,619.263733 927.795349,636.751343 
	C927.782654,642.699463 926.068420,644.389221 919.987671,644.390503 
	C831.883240,644.408386 743.778748,644.409546 655.674316,644.388245 
	C649.357300,644.386719 648.013611,642.988586 648.006592,636.764832 
	C647.987305,619.776855 647.998718,602.788818 648.000427,585.800842 
	C648.001221,577.560181 648.935547,576.600769 657.165710,576.600098 
	C735.277283,576.593872 813.388794,576.596313 892.000366,576.596252 
z"/>
<path fill="#FFFEFE" opacity="1.000000" stroke="none" 
	d="
M404.259766,1207.748047 
	C384.668121,1183.578979 365.308777,1159.679932 345.003357,1134.613037 
	C345.003357,1137.694458 345.003387,1139.429321 345.003387,1141.164185 
	C345.003357,1169.325195 345.008026,1197.486328 345.000153,1225.647339 
	C344.998047,1233.101074 344.098785,1233.995605 336.746490,1234.002197 
	C331.914124,1234.006470 327.080719,1233.940308 322.249725,1234.021851 
	C318.505005,1234.084961 316.705841,1232.281616 316.609863,1228.626343 
	C316.579224,1227.460571 316.588287,1226.293701 316.588257,1225.127319 
	C316.587372,1183.468994 316.584625,1141.810547 316.589905,1100.152222 
	C316.590973,1091.606445 317.030029,1091.073975 325.673401,1091.208862 
	C348.113953,1091.558960 341.003876,1087.932129 355.286743,1105.480469 
	C378.090942,1133.498413 400.637939,1161.725708 424.264374,1191.070190 
	C424.411255,1188.048950 424.575012,1186.238159 424.576050,1184.427490 
	C424.592255,1155.933228 424.580261,1127.438843 424.592773,1098.944580 
	C424.595856,1091.930542 425.343567,1091.203735 432.315002,1091.188354 
	C436.980713,1091.178223 441.650177,1091.303467 446.311157,1091.154663 
	C451.011505,1091.004761 452.881561,1093.138062 452.854889,1097.777100 
	C452.751434,1115.772949 452.813324,1133.769653 452.813416,1151.766113 
	C452.813507,1176.594482 452.819244,1201.422974 452.809540,1226.251343 
	C452.806854,1233.126831 451.921906,1233.989990 445.033203,1234.002075 
	C441.533905,1234.008179 437.992798,1233.658813 434.544312,1234.077515 
	C428.035736,1234.867432 423.548706,1232.452515 419.762421,1227.140991 
	C415.034546,1220.508545 409.613678,1214.369873 404.259766,1207.748047 
z"/>
<path fill="#FFFDFD" opacity="1.000000" stroke="none" 
	d="
M1241.000244,1091.185425 
	C1269.484253,1091.185425 1297.468262,1091.178833 1325.452271,1091.190674 
	C1332.022461,1091.193481 1332.983643,1092.163208 1333.001465,1098.624634 
	C1333.013062,1102.788940 1333.023560,1106.953369 1332.998901,1111.117554 
	C1332.963623,1117.094971 1332.000732,1118.094727 1326.040894,1118.098999 
	C1299.389404,1118.117676 1272.738037,1118.107300 1246.086548,1118.107422 
	C1244.293091,1118.107422 1242.499634,1118.107422 1240.417114,1118.107422 
	C1240.417114,1128.525635 1240.417114,1138.440308 1240.417114,1148.939087 
	C1242.105713,1149.019287 1243.854858,1149.172607 1245.604248,1149.174561 
	C1262.094849,1149.192993 1278.585449,1149.170288 1295.076050,1149.193970 
	C1300.932129,1149.202271 1302.028809,1150.311035 1302.097656,1156.173828 
	C1302.142578,1160.004395 1301.995972,1163.839722 1302.129761,1167.666138 
	C1302.291992,1172.310303 1300.308105,1174.214844 1295.565918,1174.168701 
	C1279.076904,1174.008179 1262.585449,1174.107300 1246.094849,1174.107544 
	C1244.305420,1174.107544 1242.516113,1174.107422 1240.420044,1174.107422 
	C1240.420044,1185.178467 1240.420044,1195.750610 1240.420044,1206.996094 
	C1242.195312,1206.996094 1243.957153,1206.996216 1245.718994,1206.996216 
	C1272.370483,1206.996216 1299.021851,1206.990479 1325.673340,1207.000122 
	C1332.102783,1207.002441 1332.975952,1207.863525 1333.000244,1214.120117 
	C1333.018311,1218.784180 1332.933472,1223.449463 1333.024902,1228.111816 
	C1333.101074,1232.000732 1331.491577,1234.019409 1327.439331,1234.016602 
	C1290.960205,1233.991455 1254.480957,1233.971069 1218.001953,1234.038086 
	C1212.787109,1234.047729 1212.149902,1230.965210 1212.157227,1226.828369 
	C1212.210327,1197.012085 1212.185547,1167.195679 1212.185547,1137.379395 
	C1212.185547,1124.220215 1212.155273,1111.061035 1212.200684,1097.901978 
	C1212.219604,1092.406860 1213.437500,1091.234375 1219.012329,1091.197388 
	C1226.174561,1091.149902 1233.337524,1091.185547 1241.000244,1091.185425 
z"/>
<path fill="#FFFEFE" opacity="1.000000" stroke="none" 
	d="
M565.894531,396.999939 
	C565.895508,388.837372 565.967651,381.173889 565.867126,373.512665 
	C565.817688,369.740967 567.466431,367.987732 571.223267,367.989471 
	C607.870300,368.006439 644.517273,368.008423 681.164307,367.986816 
	C684.737488,367.984711 686.349915,369.816620 686.382874,373.207306 
	C686.433167,378.370697 686.292664,383.538086 686.440613,388.697815 
	C686.576843,393.445892 684.412537,395.087830 679.759521,395.065216 
	C653.107788,394.935730 626.455078,395.002350 599.802734,395.002380 
	C598.003418,395.002380 596.204102,395.002380 594.110840,395.002380 
	C594.110840,405.431946 594.110840,415.475128 594.110840,425.997620 
	C602.082886,425.997620 609.868713,425.997589 617.654480,425.997620 
	C628.148865,425.997650 638.646301,426.146729 649.136108,425.928192 
	C653.650330,425.834167 655.651428,427.834900 655.765991,432.034485 
	C655.883972,436.362030 655.888672,440.698395 655.758484,445.025360 
	C655.630920,449.265228 653.489746,451.107147 649.044983,451.068329 
	C630.902649,450.909637 612.758179,451.002197 594.213745,451.002197 
	C594.213745,461.903381 594.213745,472.597961 594.213745,483.894440 
	C596.030212,483.894440 597.807007,483.894440 599.583801,483.894440 
	C626.069580,483.894440 652.555420,483.889801 679.041199,483.897736 
	C685.659180,483.899719 686.376526,484.639252 686.406433,491.418854 
	C686.426270,495.916351 686.327454,500.415863 686.431519,504.911041 
	C686.522217,508.828003 684.859680,510.821289 680.839111,510.819336 
	C644.358704,510.801666 607.878235,510.792572 571.397827,510.827606 
	C566.528442,510.832275 565.839233,507.983948 565.848328,503.942871 
	C565.928345,468.462036 565.894592,432.980957 565.894531,396.999939 
z"/>
<path fill="#FFFDFD" opacity="1.000000" stroke="none" 
	d="
M540.412720,383.047974 
	C540.412659,423.038879 540.416504,462.537933 540.409607,502.037018 
	C540.408142,510.319519 539.899963,510.810425 531.634399,510.813202 
	C527.134521,510.814728 522.632385,510.723846 518.135376,510.837067 
	C513.672302,510.949402 511.909149,508.927460 511.946564,504.475616 
	C512.076904,488.977081 511.996704,473.476776 511.996552,457.977142 
	C511.996552,456.164490 511.996552,454.351807 511.996552,452.177399 
	C486.509186,452.177399 461.298309,452.177399 435.657349,452.177399 
	C435.574005,454.007233 435.425659,455.775970 435.423523,457.544891 
	C435.404846,473.044525 435.436005,488.544250 435.399475,504.043793 
	C435.386017,509.761566 434.364868,510.756683 428.704132,510.804321 
	C423.704590,510.846436 418.701324,510.704102 413.705444,510.845398 
	C409.337860,510.968933 407.176025,509.115784 407.177887,504.675354 
	C407.196045,461.176392 407.193787,417.677399 407.180847,374.178436 
	C407.179565,369.854340 409.053650,367.746979 413.580658,367.952301 
	C418.071320,368.155975 422.578430,367.995178 427.078339,367.996887 
	C435.019104,367.999878 435.408752,368.395630 435.411407,376.575348 
	C435.416138,391.241669 435.412872,405.907990 435.412933,420.574310 
	C435.412933,422.356018 435.412933,424.137726 435.412933,426.249512 
	C461.125183,426.249512 486.219604,426.249512 511.996552,426.249512 
	C511.996552,424.027069 511.996552,421.761017 511.996582,419.494995 
	C511.996674,404.495361 512.090515,389.494751 511.941467,374.496613 
	C511.894836,369.804382 513.687378,367.764923 518.434570,367.950958 
	C523.593262,368.153168 528.772766,368.162872 533.930420,367.948334 
	C538.745361,367.748077 540.590637,370.011963 540.427368,374.557159 
	C540.331726,377.220215 540.411743,379.889618 540.412720,383.047974 
z"/>
<path fill="#FFFEFE" opacity="1.000000" stroke="none" 
	d="
M858.477966,1206.446899 
	C861.882202,1213.516602 865.187378,1220.221680 868.271667,1227.026855 
	C870.509460,1231.964600 869.253052,1233.918335 863.988892,1233.984131 
	C857.825317,1234.061035 851.655945,1233.867065 845.496887,1234.051636 
	C841.600525,1234.168335 839.299438,1232.474243 837.804260,1229.016479 
	C835.499023,1223.685547 832.884583,1218.486694 830.640503,1213.131592 
	C829.543152,1210.512939 828.167175,1209.324341 825.116211,1209.340332 
	C800.458618,1209.468994 775.799744,1209.468018 751.142151,1209.342285 
	C748.092773,1209.326782 746.720764,1210.567627 745.602051,1213.139648 
	C743.218750,1218.619263 740.526672,1223.963867 738.063721,1229.410156 
	C736.580017,1232.691162 734.197693,1234.123291 730.587341,1234.038940 
	C724.759155,1233.902710 718.925415,1234.019531 713.094116,1233.998169 
	C706.496338,1233.973999 705.263916,1232.048340 708.103699,1226.155273 
	C717.980286,1205.660156 727.881104,1185.176514 737.761841,1164.683228 
	C748.582336,1142.240845 759.471436,1119.830933 770.136292,1097.314819 
	C772.273132,1092.803467 775.059387,1090.697998 780.179260,1091.098999 
	C785.312683,1091.501099 790.523132,1091.477539 795.661194,1091.106201 
	C800.859375,1090.730591 803.831543,1092.619873 806.112854,1097.422852 
	C822.358826,1131.626465 838.857849,1165.709839 855.275146,1199.832153 
	C856.283264,1201.927368 857.281433,1204.027466 858.477966,1206.446899 
M785.402588,1127.039795 
	C776.390991,1146.517700 767.379333,1165.995605 758.248596,1185.730957 
	C778.539246,1185.730957 798.065552,1185.730957 818.072083,1185.730957 
	C808.161011,1164.110962 798.435669,1142.896362 788.397888,1121.000000 
	C787.339661,1123.201416 786.564392,1124.814209 785.402588,1127.039795 
z"/>
<path fill="#FFFDFD" opacity="1.000000" stroke="none" 
	d="
M1075.460449,1106.504028 
	C1090.059326,1138.923096 1104.465332,1171.014282 1119.303345,1204.067993 
	C1124.436890,1192.572876 1129.157471,1182.045288 1133.842896,1171.502197 
	C1144.832520,1146.772827 1155.901489,1122.078003 1166.696655,1097.263916 
	C1168.658569,1092.754028 1171.304443,1090.820679 1176.176270,1091.117920 
	C1181.157349,1091.421631 1186.171631,1091.164185 1191.171143,1091.190308 
	C1197.887939,1091.225220 1198.945068,1092.831787 1196.201172,1098.965698 
	C1183.990967,1126.261353 1171.761230,1153.548340 1159.529175,1180.834229 
	C1152.462524,1196.597900 1145.264771,1212.304199 1138.377686,1228.145752 
	C1136.522827,1232.412109 1134.018921,1234.314941 1129.286255,1234.085571 
	C1122.635620,1233.763062 1115.945068,1233.752441 1109.295776,1234.087891 
	C1104.403442,1234.334717 1101.783081,1232.446899 1099.792358,1227.982422 
	C1082.338867,1188.841797 1064.687500,1149.789551 1047.095947,1110.710571 
	C1045.255737,1106.622681 1043.361328,1102.557983 1041.603394,1098.435059 
	C1039.381470,1093.223999 1040.622925,1091.264771 1046.177490,1091.200317 
	C1051.843018,1091.134399 1057.515259,1091.334961 1063.174438,1091.134399 
	C1067.077515,1090.996094 1069.442017,1092.652222 1070.874878,1096.145264 
	C1072.259766,1099.521362 1073.797241,1102.835083 1075.460449,1106.504028 
z"/>
<path fill="#FFFEFE" opacity="1.000000" stroke="none" 
	d="
M289.000214,395.106018 
	C282.670532,395.104370 276.839294,395.023560 271.011536,395.130341 
	C267.424652,395.196045 265.726196,393.416565 265.664368,390.049438 
	C265.560394,384.388824 265.534424,378.722961 265.655975,373.063171 
	C265.753296,368.530762 268.833801,367.954346 272.575897,367.962036 
	C303.057159,368.024811 333.538605,367.997284 364.019989,367.997284 
	C370.849152,367.997284 377.678436,367.972595 384.507446,368.005066 
	C390.181580,368.032043 391.070068,368.955414 391.100647,374.762146 
	C391.126068,379.592377 390.956665,384.428833 391.149506,389.251495 
	C391.323853,393.611969 389.333618,395.178040 385.161377,395.142548 
	C372.836456,395.037689 360.510071,395.105713 348.184265,395.106110 
	C346.546844,395.106140 344.909424,395.106079 342.739380,395.106079 
	C342.617249,397.383331 342.425751,399.300934 342.424713,401.218689 
	C342.406433,435.197937 342.415588,469.177155 342.407867,503.156403 
	C342.406281,510.127228 341.712219,510.795349 334.641479,510.810883 
	C330.477386,510.820007 326.313202,510.819977 322.149109,510.810852 
	C315.276459,510.795776 314.195312,509.694305 314.190857,502.605316 
	C314.180267,485.782257 314.187439,468.959198 314.187408,452.136139 
	C314.187408,435.146515 314.187408,418.156891 314.187408,401.167267 
	C314.187408,399.360931 314.187378,397.554596 314.187378,395.106018 
	C305.707245,395.106018 297.603668,395.106018 289.000214,395.106018 
z"/>
<path fill="#FFFEFE" opacity="1.000000" stroke="none" 
	d="
M933.106262,1142.000000 
	C933.106201,1170.308838 933.114563,1198.117554 933.100525,1225.926392 
	C933.096802,1233.302246 932.390869,1233.991943 925.178467,1234.001587 
	C920.682434,1234.007568 916.186218,1234.028198 911.690430,1233.996460 
	C906.010620,1233.956299 904.917480,1232.927856 904.906494,1227.328003 
	C904.872559,1210.009888 904.893921,1192.691895 904.893799,1175.373779 
	C904.893738,1158.388794 904.893677,1141.403687 904.893677,1124.418701 
	C904.893677,1122.629517 904.893677,1120.840210 904.893677,1118.411987 
	C902.244019,1118.411987 900.131348,1118.412109 898.018738,1118.411987 
	C886.362366,1118.411743 874.705750,1118.447510 863.049622,1118.395752 
	C857.263611,1118.369995 856.069275,1117.124390 856.007690,1111.291504 
	C855.958496,1106.629517 856.000671,1101.966553 856.003235,1097.303955 
	C856.005432,1093.283813 857.775269,1091.160156 862.037048,1091.164795 
	C900.003540,1091.206299 937.970093,1091.202026 975.936584,1091.171509 
	C980.191467,1091.168091 981.916809,1093.243286 981.834106,1097.350952 
	C981.736816,1102.178101 981.658691,1107.014771 981.856262,1111.835815 
	C982.049011,1116.537476 980.013062,1118.489868 975.353455,1118.446899 
	C963.365051,1118.336304 951.375000,1118.411255 939.385559,1118.412109 
	C937.574524,1118.412231 935.763428,1118.411987 933.106262,1118.411987 
	C933.106262,1126.361206 933.106262,1133.930542 933.106262,1142.000000 
z"/>
<path fill="#FFFEFE" opacity="1.000000" stroke="none" 
	d="
M594.000122,1091.186768 
	C609.827759,1091.186890 625.155396,1091.172363 640.483032,1091.194214 
	C646.594360,1091.202881 647.771545,1092.389282 647.807495,1098.445923 
	C647.834167,1102.944092 647.702332,1107.446045 647.842529,1111.939941 
	C647.988892,1116.632446 645.848877,1118.506348 641.212280,1118.454956 
	C629.218201,1118.321655 617.221680,1118.411255 605.226135,1118.411865 
	C603.403015,1118.411865 601.579895,1118.411865 599.002991,1118.411865 
	C599.002991,1120.598755 599.002991,1122.512207 599.002991,1124.425659 
	C599.002991,1158.246460 599.004456,1192.067139 599.001831,1225.887939 
	C599.001221,1233.507812 598.493408,1233.997925 590.687561,1234.002441 
	C586.689026,1234.004761 582.690552,1234.008667 578.692017,1234.001587 
	C571.576294,1233.989014 570.899231,1233.342773 570.897522,1226.345337 
	C570.889160,1192.358032 570.893677,1158.370605 570.893677,1124.383301 
	C570.893677,1122.595215 570.893677,1120.807129 570.893677,1118.411865 
	C566.052307,1118.411865 561.765930,1118.411865 557.479492,1118.411743 
	C547.983032,1118.411499 538.486328,1118.453613 528.990234,1118.395386 
	C523.116089,1118.359253 522.063232,1117.242065 522.005493,1111.281860 
	C521.963501,1106.950684 521.963135,1102.618164 522.005737,1098.286987 
	C522.062805,1092.499634 523.314575,1091.204102 529.023926,1091.197388 
	C550.515991,1091.172119 572.007996,1091.187012 594.000122,1091.186768 
z"/>
<path fill="#FEFDFD" opacity="1.000000" stroke="none" 
	d="
M291.109222,1209.000000 
	C291.108948,1215.659058 290.980469,1221.821533 291.152740,1227.975830 
	C291.270782,1232.193848 289.582825,1234.132812 285.299438,1234.035156 
	C279.809143,1233.909790 274.312469,1233.930298 268.821075,1234.029053 
	C265.012787,1234.097412 263.304565,1232.148804 263.215210,1228.587158 
	C263.119263,1224.760864 263.184235,1220.930542 263.184174,1217.101929 
	C263.183441,1177.817505 263.180145,1138.532959 263.187073,1099.248535 
	C263.188324,1092.162354 264.163239,1091.199097 271.215302,1091.185181 
	C275.543243,1091.176636 279.871399,1091.159302 284.199127,1091.189697 
	C290.202484,1091.231812 291.100616,1092.114136 291.102692,1098.137329 
	C291.115479,1134.924927 291.109161,1171.712402 291.109222,1209.000000 
z"/>
<path fill="#FEFDFD" opacity="1.000000" stroke="none" 
	d="
M663.890808,1195.000000 
	C663.890808,1162.535278 663.885803,1130.570557 663.894958,1098.605835 
	C663.896790,1091.987793 664.705322,1091.205688 671.405090,1091.186157 
	C675.900085,1091.172974 680.395325,1091.157715 684.890137,1091.190552 
	C690.671631,1091.232788 691.804138,1092.364136 691.808350,1098.257202 
	C691.826599,1123.562622 691.816345,1148.868042 691.816345,1174.173462 
	C691.816345,1191.654175 691.828369,1209.134766 691.809875,1226.615479 
	C691.803040,1233.080322 690.844788,1233.989014 684.243652,1234.003296 
	C679.582153,1234.013306 674.912415,1233.832764 670.261353,1234.052734 
	C665.435608,1234.280762 663.772644,1232.073608 663.841125,1227.463989 
	C663.999207,1216.811401 663.890991,1206.154907 663.890808,1195.000000 
z"/>
<path fill="#FFFFFF" opacity="1.000000" stroke="none" 
	d="
M477.999176,1114.000488 
	C477.999695,1108.006104 478.011719,1102.511597 477.996826,1097.017090 
	C477.986328,1093.148438 479.776123,1091.139526 483.757812,1091.182373 
	C488.252777,1091.230713 492.748688,1091.189331 497.244171,1091.190308 
	C505.646759,1091.192261 506.099152,1091.620239 506.101166,1099.816406 
	C506.107819,1127.288940 506.103790,1154.761475 506.103668,1182.234009 
	C506.103607,1197.218994 506.129333,1212.204102 506.089600,1227.188965 
	C506.074432,1232.914917 505.018433,1233.949341 499.433075,1233.992798 
	C494.604889,1234.030396 489.775940,1234.026855 484.947662,1233.994019 
	C479.219666,1233.955078 478.012817,1232.749268 478.008087,1226.887939 
	C477.987579,1201.413452 477.999237,1175.938843 477.999176,1150.464355 
	C477.999176,1138.476318 477.999176,1126.488281 477.999176,1114.000488 
z"/>
<path fill="#FFFFFF" opacity="1.000000" stroke="none" 
	d="
M997.902710,1096.446533 
	C998.019714,1092.670044 999.938049,1091.230469 1003.058105,1091.207764 
	C1008.886047,1091.165283 1014.714661,1091.177246 1020.542847,1091.203979 
	C1024.638062,1091.222778 1026.001465,1093.702759 1025.999268,1097.381470 
	C1025.993774,1106.706787 1026.000366,1116.031982 1026.000488,1125.357300 
	C1026.000977,1158.661743 1026.004272,1191.966309 1025.998169,1225.270752 
	C1025.996704,1233.346191 1025.319458,1233.998169 1017.122803,1234.000488 
	C1012.793213,1234.001587 1008.459900,1233.886963 1004.135132,1234.031738 
	C999.698975,1234.180420 997.811218,1232.280640 997.851868,1227.787354 
	C997.976929,1213.967041 997.896301,1200.145020 997.896423,1186.323608 
	C997.896729,1156.516113 997.897461,1126.708618 997.902710,1096.446533 
z"/>
<path fill="#CE393A" opacity="1.000000" stroke="none" 
	d="
M353.000061,751.000732 
	C345.532471,751.000732 338.564819,751.000732 331.300049,751.000732 
	C331.300049,715.456848 331.300049,680.236389 331.300049,644.402039 
	C332.965149,644.402039 334.583588,644.402039 336.201996,644.402039 
	C379.840240,644.402039 423.478577,644.362122 467.116730,644.416443 
	C494.933075,644.451111 516.145142,662.000427 521.437561,689.182617 
	C527.369629,719.650085 502.011963,750.835083 470.923401,750.961792 
	C431.782867,751.121338 392.641205,751.000549 353.000061,751.000732 
z"/>
<path fill="#CE3A3B" opacity="1.000000" stroke="none" 
	d="
M785.595825,1126.733398 
	C786.564392,1124.814209 787.339661,1123.201416 788.397888,1121.000000 
	C798.435669,1142.896362 808.161011,1164.110962 818.072083,1185.730957 
	C798.065552,1185.730957 778.539246,1185.730957 758.248596,1185.730957 
	C767.379333,1165.995605 776.390991,1146.517700 785.595825,1126.733398 
z"/>
</svg>